<?xml version="1.0" encoding="UTF-8" standalone="no"?>
<svg
   version="1.1"
   id="Layer_1"
   x="0px"
   y="0px"
   viewBox="0 0 100 100"
   xml:space="preserve"
   sodipodi:docname="english-language-code.svg"
   width="100"
   height="100"
   inkscape:version="1.1 (c68e22c387, 2021-05-23)"
   xmlns:inkscape="http://www.inkscape.org/namespaces/inkscape"
   xmlns:sodipodi="http://sodipodi.sourceforge.net/DTD/sodipodi-0.dtd"
   xmlns="http://www.w3.org/2000/svg"
   xmlns:svg="http://www.w3.org/2000/svg"><defs
     id="defs11" /><sodipodi:namedview
     id="namedview9"
     pagecolor="#ffffff"
     bordercolor="#666666"
     borderopacity="1.0"
     inkscape:pageshadow="2"
     inkscape:pageopacity="0.0"
     inkscape:pagecheckerboard="true"
     showgrid="false"
     fit-margin-top="0"
     fit-margin-left="0"
     fit-margin-right="0"
     fit-margin-bottom="0"
     inkscape:zoom="8.7247654"
     inkscape:cx="61.434317"
     inkscape:cy="49.972691"
     inkscape:window-width="3840"
     inkscape:window-height="2066"
     inkscape:window-x="2869"
     inkscape:window-y="-11"
     inkscape:window-maximized="1"
     inkscape:current-layer="Layer_1" /><style
     type="text/css"
     id="style2">.st0{fill-rule:evenodd;clip-rule:evenodd;}</style><g
     id="g6"
     transform="scale(0.81380208,0.99950025)"
     style="fill:#ffffff"><path
       class="st0"
       d="m 6.38,0 h 110.11 c 3.51,0 6.39,2.87 6.39,6.38 v 87.29 c 0,3.51 -2.87,6.38 -6.39,6.38 H 6.38 C 2.87,100.05 0,97.18 0,93.67 V 6.38 C 0,2.87 2.87,0 6.38,0 Z M 26.1,31.43 h 30.77 v 7.95 H 37.63 v 5.92 h 17.83 v 7.59 H 37.63 v 7.33 h 19.8 v 8.42 H 26.1 Z m 35.13,0 H 71.96 L 85.91,51.98 V 31.43 H 96.77 V 68.64 H 85.91 L 72.04,48.2 V 68.63 H 61.23 Z"
       id="path4"
       style="fill:#ffffff" /></g></svg>
