<?xml version="1.0" encoding="UTF-8" standalone="no"?>
<svg
   version="1.1"
   id="Layer_1"
   x="0px"
   y="0px"
   viewBox="0 0 100 100"
   xml:space="preserve"
   sodipodi:docname="french-language-code.svg"
   width="100"
   height="100"
   inkscape:version="1.1 (c68e22c387, 2021-05-23)"
   xmlns:inkscape="http://www.inkscape.org/namespaces/inkscape"
   xmlns:sodipodi="http://sodipodi.sourceforge.net/DTD/sodipodi-0.dtd"
   xmlns="http://www.w3.org/2000/svg"
   xmlns:svg="http://www.w3.org/2000/svg"><defs
     id="defs11" /><sodipodi:namedview
     id="namedview9"
     pagecolor="#ffffff"
     bordercolor="#666666"
     borderopacity="1.0"
     inkscape:pageshadow="2"
     inkscape:pageopacity="0.0"
     inkscape:pagecheckerboard="true"
     showgrid="false"
     fit-margin-top="0"
     fit-margin-left="0"
     fit-margin-right="0"
     fit-margin-bottom="0"
     inkscape:zoom="12.338681"
     inkscape:cx="66.943944"
     inkscape:cy="58.353074"
     inkscape:window-width="3840"
     inkscape:window-height="2066"
     inkscape:window-x="2869"
     inkscape:window-y="-11"
     inkscape:window-maximized="1"
     inkscape:current-layer="Layer_1" /><style
     type="text/css"
     id="style2">.st0{fill-rule:evenodd;clip-rule:evenodd;}</style><g
     id="g6"
     transform="scale(0.81380208,0.99950025)"
     style="fill:#ffffff"><path
       class="st0"
       d="m 6.38,0 h 110.11 c 3.51,0 6.39,2.87 6.39,6.38 v 87.29 c 0,3.51 -2.87,6.38 -6.39,6.38 H 6.38 C 2.87,100.05 0,97.18 0,93.67 V 6.38 C 0,2.87 2.87,0 6.38,0 Z m 20.63,31.43 h 28.43 v 8 H 38.55 v 6.5 H 53 v 7.54 H 38.55 V 68.65 H 27.01 Z M 59.28,68.64 V 31.43 h 19.16 c 3.55,0 6.27,0.3 8.14,0.92 1.88,0.61 3.4,1.74 4.55,3.39 1.15,1.65 1.72,3.67 1.72,6.05 0,2.06 -0.44,3.85 -1.33,5.34 -0.87,1.51 -2.09,2.72 -3.64,3.66 -0.98,0.59 -2.33,1.08 -4.04,1.47 1.37,0.46 2.36,0.91 2.99,1.37 0.42,0.3 1.03,0.96 1.84,1.96 0.8,1 1.33,1.77 1.6,2.31 l 5.59,10.75 H 82.87 L 76.73,57.3 C 75.95,55.83 75.26,54.87 74.65,54.43 73.82,53.86 72.87,53.57 71.83,53.57 H 70.82 V 68.64 Z M 70.82,46.55 h 4.86 c 0.52,0 1.54,-0.17 3.05,-0.51 0.76,-0.15 1.39,-0.54 1.86,-1.17 0.49,-0.63 0.73,-1.35 0.73,-2.17 0,-1.2 -0.38,-2.13 -1.14,-2.77 -0.76,-0.65 -2.19,-0.97 -4.3,-0.97 h -5.06 z"
       id="path4"
       style="fill:#ffffff" /></g></svg>
