<?xml version="1.0" encoding="UTF-8" standalone="no"?>
<svg
   height="60"
   id="svg2793"
   style="clip-rule:evenodd;fill-rule:evenodd;stroke-linejoin:round;stroke-miterlimit:2"
   version="1.1"
   viewBox="0 0 63.801182 60"
   width="63.801182"
   xml:space="preserve"
   sodipodi:docname="measuring.svg"
   inkscape:version="1.1 (c68e22c387, 2021-05-23)"
   xmlns:inkscape="http://www.inkscape.org/namespaces/inkscape"
   xmlns:sodipodi="http://sodipodi.sourceforge.net/DTD/sodipodi-0.dtd"
   xmlns="http://www.w3.org/2000/svg"
   xmlns:svg="http://www.w3.org/2000/svg"><sodipodi:namedview
     id="namedview13"
     pagecolor="#ffffff"
     bordercolor="#666666"
     borderopacity="1.0"
     inkscape:pageshadow="2"
     inkscape:pageopacity="0.0"
     inkscape:pagecheckerboard="true"
     showgrid="false"
     fit-margin-top="0"
     fit-margin-left="0"
     fit-margin-right="0"
     fit-margin-bottom="0"
     inkscape:zoom="9.6453784"
     inkscape:cx="54.22286"
     inkscape:cy="54.741243"
     inkscape:window-width="3840"
     inkscape:window-height="2066"
     inkscape:window-x="2869"
     inkscape:window-y="-11"
     inkscape:window-maximized="1"
     inkscape:current-layer="svg2793" /><defs
     id="defs2797" /><g
     id="_11-Analysis"
     style="display:inline;fill:#ffffff"
     transform="matrix(0.12799454,0,0,0.12799454,-0.86601106,-264.89968)"><g
       id="g2564"
       transform="translate(470.052,2104.79)"
       style="fill:#ffffff"><path
         d="m 0,398.424 c -3.333,3.336 -7.77,5.173 -12.491,5.173 -4.72,0 -9.156,-1.837 -12.499,-5.181 -8.255,-8.248 -17.551,-17.546 -25.805,-25.803 -3.34,-3.341 -5.179,-7.778 -5.179,-12.496 0,-4.667 1.793,-9.052 5.052,-12.368 0.043,-0.043 0.086,-0.085 0.129,-0.128 3.335,-3.336 7.771,-5.174 12.491,-5.174 4.721,0 9.158,1.838 12.493,5.174 l 0.007,0.007 c 8.254,8.248 17.551,17.545 25.805,25.803 3.34,3.341 5.179,7.779 5.179,12.496 0,4.717 -1.84,9.154 -5.182,12.497 M -258.702,295.371 c -42.913,-42.915 -42.913,-112.742 0,-155.657 20.773,-20.774 48.413,-32.214 77.829,-32.214 29.415,0 57.056,11.44 77.829,32.214 42.914,42.915 42.914,112.742 0,155.657 -20.773,20.773 -48.414,32.214 -77.829,32.214 -29.416,0 -57.056,-11.441 -77.829,-32.214 M -279.82,38.687 c -12.093,0 -21.93,-9.837 -21.93,-21.93 0,-12.092 9.837,-21.93 21.93,-21.93 12.093,0 21.931,9.838 21.931,21.93 0,12.093 -9.838,21.93 -21.931,21.93 m -131.534,186.61 c -12.094,0 -21.932,-9.837 -21.932,-21.93 0,-12.092 9.838,-21.93 21.932,-21.93 12.092,0 21.931,9.838 21.931,21.93 0,12.093 -9.839,21.93 -21.931,21.93 M -16.75,66.747 c 12.093,0 21.932,9.838 21.932,21.93 0,12.098 -9.839,21.94 -21.932,21.94 -12.092,0 -21.931,-9.842 -21.931,-21.94 0,-12.092 9.839,-21.93 21.931,-21.93 m 12.16,259.666 c -9.002,-9.006 -20.974,-13.966 -33.712,-13.966 -7.196,0 -14.146,1.588 -20.456,4.59 l -12.414,-12.411 c 36.828,-46.325 40.073,-110.752 9.733,-160.268 l 14.469,-13.481 c 8.52,6.121 18.953,9.74 30.22,9.74 28.635,0 51.932,-23.3 51.932,-51.94 0,-28.634 -23.297,-51.93 -51.932,-51.93 -28.634,0 -51.931,23.296 -51.931,51.93 0,6.444 1.188,12.613 3.343,18.311 l -14.524,13.532 c -0.65,-0.677 -1.302,-1.353 -1.969,-2.019 -26.439,-26.44 -61.613,-41.001 -99.042,-41.001 -5.264,0 -10.482,0.298 -15.639,0.867 L -232.45,37.998 c 2.921,-6.489 4.561,-13.675 4.561,-21.241 0,-28.634 -23.296,-51.93 -51.931,-51.93 -28.635,0 -51.93,23.296 -51.93,51.93 0,10.829 3.335,20.89 9.026,29.22 l -75.658,107.101 c -4.148,-1.071 -8.495,-1.641 -12.972,-1.641 -28.636,0 -51.932,23.296 -51.932,51.93 0,28.635 23.296,51.93 51.932,51.93 28.634,0 51.931,-23.295 51.931,-51.93 0,-13.299 -5.032,-25.443 -13.284,-34.64 l 73.369,-103.86 c 6.03,2.455 12.616,3.82 19.518,3.82 10.091,0 19.511,-2.902 27.49,-7.902 l 22.632,25.422 c -18.647,6.914 -35.743,17.819 -50.217,32.294 h -10e-4 c -54.609,54.611 -54.609,143.471 10e-4,198.083 26.439,26.44 61.613,41.001 99.042,41.001 32.715,0 63.707,-11.126 88.65,-31.584 l 11.782,11.779 c -3.614,6.796 -5.533,14.417 -5.533,22.337 0,12.728 4.958,24.698 13.961,33.704 8.259,8.263 17.56,17.565 25.812,25.81 9.002,9.006 20.974,13.966 33.71,13.966 12.737,0 24.71,-4.96 33.713,-13.966 9.002,-9.007 13.96,-20.976 13.96,-33.704 0,-12.728 -4.958,-24.697 -13.96,-33.704 -8.256,-8.26 -17.555,-17.559 -25.812,-25.81"
         id="path2562"
         style="fill:#ffffff;fill-rule:nonzero" /></g><g
       id="g2568"
       transform="translate(350.546,2353.53)"
       style="fill:#ffffff"><path
         d="m 0,-67.15 c -8.284,0 -15,6.716 -15,15 V -15 c 0,8.284 6.716,15 15,15 8.284,0 15,-6.716 15,-15 v -37.15 c 0,-8.284 -6.716,-15 -15,-15"
         id="path2566"
         style="fill:#ffffff;fill-rule:nonzero" /></g><g
       id="g2572"
       transform="translate(233.915,2353.87)"
       style="fill:#ffffff"><path
         d="m 0,-67.83 c -8.284,0 -15,6.716 -15,15 V -15 c 0,8.284 6.716,15 15,15 8.284,0 15,-6.716 15,-15 v -37.83 c 0,-8.284 -6.716,-15 -15,-15"
         id="path2570"
         style="fill:#ffffff;fill-rule:nonzero" /></g><g
       id="g2576"
       transform="translate(292.229,2381.45)"
       style="fill:#ffffff"><path
         d="m 0,-122.99 c -8.284,0 -15,6.716 -15,15 V -15 c 0,8.284 6.716,15 15,15 8.284,0 15,-6.716 15,-15 v -92.99 c 0,-8.284 -6.716,-15 -15,-15"
         id="path2574"
         style="fill:#ffffff;fill-rule:nonzero" /></g></g></svg>
