<?xml version="1.0" encoding="UTF-8" standalone="no"?>
<svg
   id="svg4878"
   height="92.429146"
   width="100.00001"
   version="1.0"
   sodipodi:docname="parking.svg"
   inkscape:version="1.1 (c68e22c387, 2021-05-23)"
   xmlns:inkscape="http://www.inkscape.org/namespaces/inkscape"
   xmlns:sodipodi="http://sodipodi.sourceforge.net/DTD/sodipodi-0.dtd"
   xmlns="http://www.w3.org/2000/svg"
   xmlns:svg="http://www.w3.org/2000/svg"
   xmlns:rdf="http://www.w3.org/1999/02/22-rdf-syntax-ns#"
   xmlns:cc="http://creativecommons.org/ns#"
   xmlns:dc="http://purl.org/dc/elements/1.1/">
  <defs
     id="defs11" />
  <sodipodi:namedview
     id="namedview9"
     pagecolor="#ffffff"
     bordercolor="#666666"
     borderopacity="1.0"
     inkscape:pageshadow="2"
     inkscape:pageopacity="0.0"
     inkscape:pagecheckerboard="true"
     showgrid="false"
     fit-margin-top="0"
     fit-margin-left="0"
     fit-margin-right="0"
     fit-margin-bottom="0"
     inkscape:zoom="8"
     inkscape:cx="75"
     inkscape:cy="32.625"
     inkscape:window-width="3840"
     inkscape:window-height="2066"
     inkscape:window-x="2869"
     inkscape:window-y="-11"
     inkscape:window-maximized="1"
     inkscape:current-layer="svg4878" />
  <metadata
     id="metadata3">
    <rdf:RDF>
      <cc:Work
         rdf:about="">
        <dc:title>AIGA_Symbol_Signs</dc:title>
        <dc:description>EPS converted from  http://aiga.org</dc:description>
        <dc:subject>
          <rdf:Bag>
            <rdf:li>symbol</rdf:li>
            <rdf:li>mapsym</rdf:li>
          </rdf:Bag>
        </dc:subject>
        <dc:publisher>
          <cc:Agent
             rdf:about="http://www.openclipart.org/">
            <dc:title>Open Clip Art Library</dc:title>
          </cc:Agent>
        </dc:publisher>
        <dc:creator>
          <cc:Agent>
            <dc:title>Jean-Victor Balin</dc:title>
          </cc:Agent>
        </dc:creator>
        <dc:rights>
          <cc:Agent>
            <dc:title>Jean-Victor Balin</dc:title>
          </cc:Agent>
        </dc:rights>
        <dc:date />
        <dc:format>image/svg+xml</dc:format>
        <dc:type
           rdf:resource="http://purl.org/dc/dcmitype/StillImage" />
        <cc:license
           rdf:resource="http://web.resource.org/cc/PublicDomain" />
        <dc:language>en</dc:language>
      </cc:Work>
      <cc:License
         rdf:about="http://web.resource.org/cc/PublicDomain">
        <cc:permits
           rdf:resource="http://web.resource.org/cc/Reproduction" />
        <cc:permits
           rdf:resource="http://web.resource.org/cc/Distribution" />
        <cc:permits
           rdf:resource="http://web.resource.org/cc/DerivativeWorks" />
      </cc:License>
    </rdf:RDF>
  </metadata>
  <path
     style="fill:#ffffff;stroke-width:0.102043"
     d="m 25.197168,92.29422 c -3.59984,-0.7763 -6.90938,-3.6762 -8.11171,-7.1077 l -0.27201,-0.7764 -0.83378,-0.065 c -0.45857,-0.036 -1.59731,-0.065 -2.53054,-0.065 l -1.69676,-6e-4 -0.5737,-0.6535 -0.5737,-0.6534 v -3.4141 -3.4141 l -0.6123004,-0.056 c -0.73219,-0.066 -1.44911,-0.4477 -1.62015,-0.8618 -0.0646,-0.1565 -0.1625,-0.56 -0.21749,-0.8968 -0.13013,-0.7969 -0.12996,-8.0823 2.1e-4,-8.8772 0.11967,-0.7308 0.32667,-1.0378 0.92812,-1.3765 0.89169,-0.502 2.1631404,-0.2581 2.7430704,0.5263 0.33844,0.4577 0.41001,1.2239 0.41065,4.3957 l 6.1e-4,2.9337 h 27.14354 27.14355 V 53.22002 34.508121 l -1.21373,-0.072 c -1.92723,-0.115 -2.29963,-0.257199 -2.74055,-1.0461 -0.66172,-1.1839 -0.20773,-2.6189 0.94876,-2.9989 0.50554,-0.1661 14.54018,-0.2567 17.0513,-0.1101 1.79397,0.1047 2.09857,0.1963 2.51955,0.7572 0.37448,0.499 0.56515,0.9113 3.10376,6.712201 3.40586,7.782499 4.01045,9.096299 4.32192,9.391599 0.15166,0.1438 1.30187,0.9676 2.55599,1.8307 5.03702,3.4665 5.60507,3.9873 6.52759,5.9841 l 0.400642,0.8671 -0.028,13.59 -0.028,13.59 -0.2551,0.4592 c -0.18818,0.3388 -0.38722,0.5247 -0.75865,0.7087 -0.4924,0.244 -0.57721,0.2511 -3.83882,0.3209 -1.91061,0.041 -3.41726,0.1156 -3.52718,0.1749 -0.10554,0.057 -0.39667,0.5756 -0.64696,1.1528 -0.2503,0.5772 -0.66836,1.3762 -0.92903,1.7755 -1.74223,2.6689 -4.95301,4.6107 -7.96243,4.8155 -3.14813,0.2143 -6.75041,-1.533 -8.76274,-4.2503 -0.44312,-0.5984 -1.28866,-2.1728 -1.62861,-3.0324 -0.0705,-0.1784 -0.2044,-0.3577 -0.29749,-0.3985 -0.32823,-0.1439 -7.86773,-0.2291 -21.04649,-0.2378 l -13.32605,-0.01 -0.28652,0.7398 c -0.65322,1.6867 -1.44973,2.9211 -2.65029,4.1072 -1.36018,1.3439 -2.85617,2.2228 -4.69767,2.7598 -1.14291,0.3333 -3.08814,0.4294 -4.13276,0.2042 z m 3.09456,-4.2983 c 1.00594,-0.107 2.26956,-0.8052 3.11286,-1.7201 1.56679,-1.6998 1.91378,-5.1485 0.72108,-7.1668 -0.51083,-0.8644 -1.56234,-1.8806 -2.34253,-2.2638 -2.30385,-1.1314 -5.50729,-0.6945 -7.20707,0.9831 -1.00158,0.9885 -1.49173,2.1675 -1.62413,3.9066 -0.20995,2.7577 1.25274,5.2093 3.59019,6.0175 1.02899,0.3558 2.06286,0.423 3.7496,0.2435 z m 54.77563,-0.043 c 0.89155,-0.1653 1.97758,-0.761 2.69446,-1.4779 2.24895,-2.249 2.19458,-6.3984 -0.11387,-8.6891 -1.35891,-1.3485 -3.41007,-1.8561 -5.72102,-1.4158 -2.1008,0.4003 -3.68602,1.9323 -4.2769,4.1335 -0.11778,0.4387 -0.17677,1.026 -0.17426,1.7347 0.006,1.8236 0.64053,3.3094 1.90395,4.4617 0.65221,0.5949 1.67531,1.1291 2.39488,1.2506 0.69995,0.1182 2.66042,0.1195 3.29276,0 z m -11.48855,-8.4953 c 0.15112,-0.463 0.54653,-1.3648 0.87869,-2.0039 0.33216,-0.6391 0.57582,-1.1901 0.54148,-1.2245 -0.0872,-0.087 -34.79109,-0.1436 -36.45179,-0.059 l -1.35439,0.069 0.31538,0.5252 c 0.41674,0.6939 0.86944,1.6649 1.21789,2.6123 l 0.28321,0.77 6.72182,0.052 c 3.697,0.029 11.41332,0.063 17.14737,0.077 l 10.42557,0.024 z m 24.13035,-1.25 v -2.0919 h -2.90221 c -1.59622,0 -2.92738,0.041 -2.95814,0.091 -0.0308,0.05 0.13717,0.424 0.37316,0.8316 0.236,0.4076 0.64214,1.2738 0.90254,1.9249 l 0.47346,1.1837 0.55046,0.06 c 0.30274,0.033 1.22777,0.067 2.05559,0.077 l 1.50514,0.017 z m -78.66937,1.199 c 0.23234,-0.7056 0.76067,-1.8039 1.32542,-2.7552 l 0.31803,-0.5357 h -1.94724 -1.94725 v 1.1581 c 0,0.637 0.0295,1.5071 0.0656,1.9336 0.0751,0.8886 0.0227,0.8512 1.22718,0.8741 l 0.7315,0.014 z m 78.63373,-14.9494 c -0.038,-4.111 -0.0974,-7.7118 -0.13198,-8.0018 -0.0605,-0.5075 -0.0879,-0.5457 -0.73845,-1.0291 -0.37158,-0.276 -1.86951,-1.3201 -3.32873,-2.3202 -1.45922,-1.0001 -3.08728,-2.1442 -3.61792,-2.5425 l -0.96478,-0.7241 -0.80425,-1.7347 c -0.94051,-2.0286 -2.13751,-4.7241 -4.3276,-9.745199 -0.86905,-1.9923 -1.6535,-3.6799 -1.74324,-3.75 -0.125,-0.098 -1.23605,-0.1276 -4.75245,-0.1276 h -4.58931 l 0.0678,12.015599 c 0.0373,6.6086 0.0679,15.0116 0.0679,18.6734 l 5e-5,6.6578 8.85227,0.027 c 4.86874,0.015 10.47846,0.038 12.46604,0.052 l 3.61376,0.025 z M 6.2012676,59.37932 c -1.06844,-0.1022 -1.5031,-0.3313 -1.81245,-0.9554 -0.545,-1.0996 -0.20011,-2.3515 0.7809,-2.8346 l 0.48614,-0.2394 4.8511904,-0.032 4.85118,-0.032 0.48401,0.426 c 0.63328,0.5575 0.78329,0.8701 0.78329,1.6322 0,0.7947 -0.19643,1.2107 -0.81681,1.7301 l -0.48706,0.4078 -4.16961,-0.014 c -2.2932904,-0.01 -4.5211404,-0.048 -4.9507804,-0.089 z m -3.45364,-8.2666 c -0.8138,-0.041 -1.51247,-0.08 -1.55261,-0.087 -0.19327,-0.034 -0.82943005,-0.7019 -1.01506005,-1.0658 -0.16507,-0.3236 -0.20059,-0.5518 -0.17004,-1.0924 0.0457,-0.8086 0.3452,-1.2883 1.03439005,-1.6567 l 0.42777,-0.2287 9.0955204,-0.029 9.09551,-0.029 0.43349,0.4883 c 0.54382,0.6126 0.71271,1.0064 0.71271,1.6618 0,0.8965 -0.41765,1.5212 -1.27554,1.9079 -0.38061,0.1716 -0.91135,0.1847 -7.85735,0.1943 -4.0970404,0.01 -8.1150004,-0.023 -8.9287904,-0.064 z m 6.5799,-8.4053 c -0.16942,-0.074 -0.45064,-0.2967 -0.62494,-0.4952 -0.56025,-0.6381 -0.59768,-0.9976 -0.59768,-5.7404 0,-4.730399 0.0436,-5.121299 0.63402,-5.6858 0.38895,-0.3718 0.92931,-0.4769 2.8354504,-0.5513 1.97497,-0.077 3.75411,0.075 4.13276,0.3533 1.03256,0.758901 0.9734,2.735201 -0.10319,3.447701 -0.33373,0.220799 -0.56458,0.268 -1.74548,0.356499 -0.74849,0.056 -1.36882,0.110701 -1.37851,0.121401 -0.01,0.011 -0.0513,1.6398 -0.0926,3.620199 l -0.075,3.6007 -0.42005,0.3656 c -0.23104,0.2011 -0.60374,0.451 -0.82824,0.5553 -0.47545,0.2209 -1.2927304,0.2454 -1.7366304,0.052 z"
     id="path1446"
     sodipodi:nodetypes="cscccccccccssssssccccccsssssssscccssssssssssccsssccsssssssscsssscssccsssscssccccsccsssscscccsscccssscsssssscsscscssccccscsscccsssccccccssscccssscccsssssssssscssss" />
  <path
     d="m 43.138408,26.568185 q 0,-1.571558 -1.111951,-2.683508 -1.11195,-1.111951 -2.683501,-1.111951 -1.571558,0 -2.683508,1.111951 -1.111951,1.11195 -1.111951,2.683508 0,1.097122 0.563389,1.98668 0.56339,0.889558 1.512253,1.393642 l -2.045986,6.790308 q -0.14826,0.444779 0.14826,0.830252 0.296519,0.385481 0.770947,0.385481 h 5.693185 q 0.474435,0 0.770954,-0.385481 0.296519,-0.385473 0.14826,-0.830252 l -2.045993,-6.790308 q 0.948863,-0.504084 1.512253,-1.393642 0.563389,-0.889558 0.563389,-1.98668 z M 31.752045,18.977274 h 15.181822 v -5.693185 q 0,-3.143108 -2.223901,-5.36701 -2.223902,-2.223901 -5.36701,-2.223901 -3.143115,0 -5.36701,2.223901 -2.223901,2.223902 -2.223901,5.36701 z m 24.670459,2.846589 v 17.079548 q 0,1.186077 -0.83026,2.016336 Q 54.761992,41.75 53.575908,41.75 H 25.109997 q -1.186077,0 -2.016336,-0.830253 -0.830253,-0.830259 -0.830253,-2.016336 V 21.823863 q 0,-1.186077 0.830253,-2.016336 0.830259,-0.830253 2.016336,-0.830253 h 0.948863 v -5.693185 q 0,-5.455964 3.914063,-9.370026 Q 33.886985,0 39.342956,0 q 5.455964,0 9.370026,3.914063 3.914063,3.914062 3.914063,9.370026 v 5.693185 h 0.948863 q 1.186084,0 2.016336,0.830253 0.83026,0.830259 0.83026,2.016336 z"
     id="path2993"
     inkscape:connector-curvature="0"
     style="fill:#ffffff;stroke-width:0.029652" />
</svg>
