<?xml version="1.0" encoding="UTF-8" standalone="no"?>
<!-- Created with Inkscape (http://www.inkscape.org/) -->

<svg
   width="722.94073mm"
   height="118.75198mm"
   viewBox="0 0 722.94075 118.75198"
   version="1.1"
   id="svg5"
   inkscape:version="1.1 (c68e22c387, 2021-05-23)"
   sodipodi:docname="tkf.svg"
   xmlns:inkscape="http://www.inkscape.org/namespaces/inkscape"
   xmlns:sodipodi="http://sodipodi.sourceforge.net/DTD/sodipodi-0.dtd"
   xmlns="http://www.w3.org/2000/svg"
   xmlns:svg="http://www.w3.org/2000/svg">
  <sodipodi:namedview
     id="namedview7"
     pagecolor="#ffffff"
     bordercolor="#666666"
     borderopacity="1.0"
     inkscape:pageshadow="2"
     inkscape:pageopacity="0.0"
     inkscape:pagecheckerboard="true"
     inkscape:document-units="mm"
     showgrid="false"
     fit-margin-top="0"
     fit-margin-left="0"
     fit-margin-right="0"
     fit-margin-bottom="0"
     inkscape:zoom="1.5554293"
     inkscape:cx="769.34284"
     inkscape:cy="311.11676"
     inkscape:window-width="3840"
     inkscape:window-height="2066"
     inkscape:window-x="2869"
     inkscape:window-y="-11"
     inkscape:window-maximized="1"
     inkscape:current-layer="layer1"
     inkscape:rotation="10" />
  <defs
     id="defs2" />
  <g
     inkscape:label="Layer 1"
     inkscape:groupmode="layer"
     id="layer1"
     transform="translate(-45.109457,-27.502218)">
    <path
       style="fill:#ffffff;fill-opacity:1;stroke-width:0.324396"
       d="m 361.09636,107.79947 c -2.78673,-0.42773 -6.1836,-2.16684 -8.16271,-4.179 -3.60616,-3.666437 -5.06908,-9.328408 -3.87086,-14.98145 1.60444,-7.569573 7.37225,-12.000117 15.05191,-11.562257 5.53852,0.315713 9.32913,3.105474 11.06146,8.140693 0.69935,2.032663 1.14379,5.932469 0.83583,7.334515 l -0.21883,0.995526 H 363.6479 351.50261 l 0.19742,0.892079 c 1.35279,6.120714 4.63113,9.408794 10.41558,10.446654 1.45437,0.26093 2.61089,0.26284 4.21718,0.008 2.28208,-0.36399 5.65326,-1.68319 6.30325,-2.46642 0.20309,-0.24445 0.64292,-0.44441 0.97786,-0.44441 0.5133,0 0.60909,0.25096 0.60909,1.59553 0,1.45182 -0.0949,1.6535 -1.05427,2.23906 -2.69777,1.64672 -8.2847,2.56446 -12.07225,1.98309 z m 11.98173,-18.388029 c -0.71588,-4.331304 -2.60764,-7.146735 -5.73904,-8.541154 -2.54049,-1.131236 -6.23782,-1.09706 -8.75088,0.08084 -3.24399,1.52059 -6.0025,5.053649 -6.60547,8.460235 l -0.21541,1.216487 h 10.75586 10.75586 z m 32.55588,18.384819 c -5.39696,-0.79204 -10.01189,-4.77514 -11.65703,-10.061137 -0.68919,-2.214196 -0.82988,-7.240184 -0.27053,-9.66611 0.96102,-4.168619 3.82295,-7.769076 7.69781,-9.684074 2.42177,-1.196948 2.53671,-1.219476 6.21479,-1.219476 3.42762,0 3.91651,0.07816 5.72956,0.916063 4.72486,2.183582 7.26312,6.743782 7.26312,13.048936 v 2.417035 h -12.20633 -12.20633 l 0.21958,1.373807 c 0.35673,2.230863 1.75055,4.918819 3.37447,6.507626 4.19186,4.10115 10.16594,4.78146 15.9056,1.81135 1.33752,-0.69219 2.6252,-1.25848 2.86144,-1.25848 0.29156,0 0.42949,0.46069 0.42949,1.43623 0,1.15793 -0.16247,1.56396 -0.8379,2.09534 -1.25078,0.98389 -3.93289,1.89027 -6.75482,2.28278 -2.78474,0.38732 -3.12429,0.38732 -5.76296,1.1e-4 z m 11.92768,-18.871411 c -0.33218,-2.643283 -1.91907,-5.591014 -3.71051,-6.891984 -3.0645,-2.225654 -7.15309,-2.692669 -10.52288,-1.202079 -3.13531,1.386908 -5.90139,4.874873 -6.67604,8.418433 l -0.30151,1.378711 h 10.71234 10.71244 z m 20.10678,18.876441 c -3.9354,-0.60492 -8.2349,-3.44889 -10.14725,-6.71203 -1.96319,-3.34996 -2.66769,-9.224114 -1.59111,-13.267334 1.40185,-5.264917 5.78766,-9.399019 11.15312,-10.512863 2.80416,-0.58215 7.59826,-0.244821 9.96672,0.701313 l 1.9464,0.777478 0.098,1.702889 c 0.10882,1.892124 -0.0453,1.994846 -1.62039,1.079206 -1.97858,-1.150204 -4.71749,-1.735456 -7.39585,-1.580398 -4.70743,0.272416 -8.48546,2.813015 -10.51403,7.069992 -0.91978,1.930171 -1.00383,2.383085 -0.99333,5.352541 0.007,2.593395 0.15903,3.614899 0.74734,5.093576 1.48925,3.74318 5.21417,6.65195 9.46672,7.39249 2.54408,0.44302 5.7639,-0.10691 8.37627,-1.43074 2.35437,-1.19305 2.64619,-1.12638 2.64619,0.60456 0,1.12607 -0.15974,1.55396 -0.72987,1.95596 -2.0488,1.44434 -7.76705,2.33317 -11.409,1.77336 z m 29.00747,-0.0268 c -2.57334,-0.4251 -5.58436,-1.94692 -7.57259,-3.82729 -3.13979,-2.96952 -4.57235,-6.666031 -4.53321,-11.697542 0.0494,-6.319525 2.88306,-11.140223 8.08461,-13.752814 2.37986,-1.195339 4.68625,-1.598332 8.11936,-1.418789 2.58128,0.134849 3.33405,0.317627 5.44878,1.321929 3.22612,1.532083 5.37076,3.682257 6.91389,6.9316 1.09747,2.31098 1.19132,2.74972 1.32286,6.186228 0.17085,4.463726 -0.39246,6.962867 -2.19618,9.743208 -2.32628,3.58578 -5.83944,5.86783 -10.07278,6.5429 -2.40552,0.38364 -3.03477,0.38007 -5.51474,-0.0307 z m 7.37324,-3.57781 c 3.64075,-1.3622 6.85375,-5.54113 7.49014,-9.741751 0.83999,-5.545341 -2.09151,-11.197006 -7.00136,-13.498102 -1.61028,-0.754681 -2.27542,-0.872038 -4.94244,-0.872038 -2.69597,0 -3.30631,0.110344 -4.87582,0.881081 -3.81424,1.873276 -6.11882,4.851926 -6.99125,9.03618 -0.85378,4.094793 0.32378,8.146707 3.28859,11.3164 3.35455,3.58629 8.24992,4.66747 13.03214,2.87823 z m 94.8624,3.59918 c -2.69366,-0.34942 -5.68774,-1.36272 -7.86657,-2.66247 -1.73305,-1.03381 -1.75502,-1.06637 -1.85192,-2.7478 -0.12309,-2.13248 0.13859,-2.16053 2.89775,-0.31036 5.70595,3.82625 13.50806,4.01866 17.41742,0.42959 1.92772,-1.76983 2.63681,-3.392721 2.64572,-6.05535 0.0125,-3.770038 -1.86575,-6.322821 -5.93634,-8.067703 -0.80383,-0.344447 -3.09194,-1.079013 -5.0847,-1.632124 -6.75269,-1.874271 -9.89958,-3.87659 -11.37851,-7.239915 -0.59518,-1.353463 -0.74664,-2.284813 -0.75058,-4.615217 -0.006,-2.521559 0.12059,-3.19647 0.91709,-4.950854 1.08276,-2.385463 2.76309,-4.026015 5.33263,-5.206524 1.5374,-0.706331 2.40896,-0.858858 5.56204,-0.973342 4.42886,-0.160927 6.71772,0.309581 10.37233,2.13201 l 2.43296,1.213194 0.0982,1.703081 c 0.12045,2.090903 -0.17058,2.153775 -2.5838,0.559084 -3.75387,-2.480368 -9.5415,-3.428154 -13.59407,-2.226188 -4.68056,1.388212 -7.02524,6.841942 -4.81606,11.201946 1.34682,2.658033 3.66736,3.952375 10.46592,5.837566 6.17632,1.71266 9.28026,3.644252 10.98423,6.835393 0.65616,1.2289 0.74332,1.848333 0.74332,5.284797 0,3.593839 -0.0661,4.017316 -0.86405,5.514776 -1.7637,3.31065 -4.92676,5.36825 -9.20231,5.98615 -2.54312,0.36745 -3.03907,0.36668 -5.94054,-0.0117 z m 33.28535,0.0306 c -4.38988,-0.78878 -7.71229,-2.8522 -9.923,-6.16273 -1.65872,-2.483977 -2.32153,-4.562038 -2.55888,-8.022727 -0.4703,-6.857768 2.70717,-12.828208 8.19338,-15.39555 1.78499,-0.835295 2.6886,-1.040469 5.14968,-1.169169 6.22279,-0.325674 10.31117,2.007261 12.75533,7.277964 0.75169,1.620974 0.89591,2.417839 1.00304,5.54262 l 0.1253,3.649461 h -12.22569 -12.22561 l 0.21071,1.054262 c 0.97024,4.852198 3.53763,7.999769 7.90368,9.689709 3.6031,1.39467 9.05961,0.73316 12.4478,-1.50898 1.84107,-1.21836 2.197,-1.08621 2.197,0.81583 0,1.60271 -0.0125,1.62317 -1.54088,2.39676 -3.26256,1.65215 -8.16912,2.43321 -11.51172,1.83255 z m 11.75502,-18.138751 c 0,-2.078871 -1.26246,-5.128864 -2.76143,-6.671176 -2.1189,-2.180173 -3.92125,-2.8988 -7.29483,-2.908649 -3.17968,-0.0077 -4.81718,0.616595 -7.27607,2.781023 -1.57021,1.38216 -3.31429,4.508741 -3.64219,6.529297 l -0.19621,1.208555 h 10.58535 10.58531 z m 82.2605,18.114081 c -5.63012,-0.87035 -10.56048,-5.46817 -11.84683,-11.047768 -0.49039,-2.127144 -0.41045,-6.709106 0.15486,-8.879662 1.36208,-5.229401 5.8099,-9.426644 11.21864,-10.586618 2.56639,-0.550388 7.48183,-0.191178 10.01701,0.732269 l 2.10856,0.767939 0.10039,1.579708 c 0.10039,1.575225 0.0983,1.57921 -0.81096,1.398977 -0.50132,-0.09925 -2.00632,-0.571268 -3.34447,-1.04859 -4.97627,-1.775113 -10.09328,-0.543569 -13.57636,3.267464 -2.29518,2.511289 -3.0843,4.690389 -3.10985,8.587632 -0.0196,2.80397 0.0716,3.275395 0.99783,5.230357 0.55989,1.181733 1.56093,2.749572 2.22456,3.484102 2.19346,2.42788 6.98583,4.18927 10.21984,3.75624 1.95116,-0.26131 4.47363,-1.05818 5.71521,-1.80558 1.68827,-1.0162 2.07031,-0.83664 2.07031,0.9732 0,1.57867 -0.003,1.58342 -1.54088,2.24044 -3.21293,1.37294 -7.18034,1.87826 -10.59802,1.34989 z m 29.19571,-0.0153 c -5.3311,-0.77743 -9.93376,-4.77369 -11.57627,-10.051023 -0.68911,-2.214234 -0.8298,-7.240221 -0.2705,-9.666144 0.96106,-4.168584 3.82301,-7.76904 7.69781,-9.684078 2.42179,-1.196909 2.53669,-1.219477 6.21477,-1.219477 3.40509,0 3.9204,0.08125 5.64105,0.887174 4.93422,2.311519 7.35165,6.457919 7.35165,12.609471 v 2.885392 h -12.16487 c -9.51769,0 -12.16401,0.08813 -12.16099,0.405484 0.003,0.222987 0.2085,1.173959 0.4584,2.113127 1.2443,4.674034 4.88878,7.931414 9.88026,8.830774 2.90037,0.52256 5.93309,-0.0306 9.07427,-1.6566 1.33758,-0.69216 2.62525,-1.25848 2.86145,-1.25848 0.29158,0 0.42952,0.46073 0.42952,1.43626 0,1.1579 -0.16249,1.56396 -0.8379,2.09534 -1.25078,0.98385 -3.93293,1.89028 -6.75482,2.28279 -2.79602,0.38888 -3.11224,0.38835 -5.84377,-0.0116 z m 12.00852,-18.861335 c -0.3322,-2.643244 -1.91909,-5.590974 -3.71053,-6.89198 -3.06456,-2.225618 -7.15309,-2.69267 -10.52287,-1.202042 -3.13532,1.386906 -5.90139,4.874872 -6.67603,8.418431 l -0.30154,1.378672 h 10.7124 10.71241 z m 15.70138,18.886175 c -2.86453,-0.39293 -6.40551,-1.56665 -7.34053,-2.43317 -0.57238,-0.53047 -0.76934,-1.05914 -0.76934,-2.0647 0,-1.72967 0.54746,-1.94665 2.18213,-0.86484 1.67784,1.11031 4.36599,2.03148 7.22109,2.47448 2.68918,0.41724 5.80944,0.0153 7.81034,-1.00508 3.43069,-1.7502 3.81909,-6.188528 0.72102,-8.238734 -1.27809,-0.84576 -4.14171,-1.646418 -9.2795,-2.594513 -6.49549,-1.198631 -8.97149,-3.763523 -8.56562,-8.873225 0.28237,-3.556664 2.31964,-5.70546 6.39845,-6.749146 4.12402,-1.055298 11.37516,-0.189654 14.67895,1.751932 0.79449,0.466975 0.89206,0.711846 0.89206,2.238562 0,0.942848 -0.14105,1.714232 -0.313,1.714232 -0.17233,0 -1.2318,-0.504869 -2.35447,-1.121963 -5.68042,-3.122367 -13.41483,-2.746769 -15.74137,0.764453 -1.45065,2.189331 -0.61755,4.930238 1.8869,6.207913 0.73978,0.377399 3.56965,1.096447 6.28859,1.597833 6.88055,1.268824 9.29649,2.489027 10.59695,5.35201 0.85815,1.889168 0.81897,5.377786 -0.0813,7.237436 -1.73197,3.57783 -7.68413,5.50449 -14.23118,4.60652 z M 332.05138,87.384296 V 67.271687 h -7.29891 -7.29893 V 65.649718 64.02775 h 16.2198 16.21981 v 1.621968 1.621969 h -7.29892 -7.29892 v 20.112609 20.112574 h -1.62197 -1.62196 z m 50.93022,-2.57742 V 62.081362 h 1.6242 1.6242 l -0.0833,22.626662 -0.0833,22.626666 -1.54088,0.0989 -1.54091,0.0989 z m 108.99721,7.767779 V 77.652401 h 1.4598 1.45978 v 1.459784 c 0,0.802883 0.0549,1.459786 0.12309,1.459786 0.0675,0 0.97997,-0.517056 2.02743,-1.149017 5.96277,-3.597161 13.8327,-3.128995 16.74015,0.995833 l 0.97697,1.385991 1.47273,-1.124186 c 3.16597,-2.416653 6.69253,-3.677008 10.28845,-3.677008 3.20921,0 5.42315,0.725908 7.1949,2.359027 3.04911,2.810602 3.41288,4.851576 3.2798,18.40236 l -0.0937,9.569719 -1.34925,0.0984 -1.3492,0.0985 -0.11076,-10.96563 -0.11077,-10.96559 -0.85036,-1.813543 c -1.36827,-2.918189 -3.62539,-4.059694 -7.48167,-3.78379 -2.63532,0.188496 -6.12963,1.749288 -8.37227,3.739461 l -1.39392,1.236948 0.0686,11.258844 0.0686,11.25885 h -1.45504 -1.45503 l -0.10728,-10.948385 -0.10729,-10.948385 -0.85046,-1.813543 c -1.36223,-2.904852 -3.62913,-4.059462 -7.43541,-3.787122 -2.59639,0.185838 -5.45882,1.418096 -8.01507,3.450606 l -1.70305,1.354151 v 11.34635 11.346328 h -1.45983 -1.45975 z m 132.02941,0 V 77.652401 h 1.45979 1.45979 v 1.80588 1.805918 l 1.37866,-1.117978 c 2.75711,-2.235772 6.36998,-3.425094 9.03616,-2.974668 1.25166,0.211489 1.26343,0.227196 1.26343,1.687451 v 1.473999 l -1.33082,-0.178552 c -2.94915,-0.39556 -6.4738,1.25553 -9.01881,4.224793 l -1.32444,1.545223 -0.003,10.786198 -0.003,10.786155 h -1.45978 -1.45976 V 92.57461 Z m 22.43795,0.583454 c -3.4249,-7.90368 -6.22501,-14.625775 -6.22261,-14.938037 0.003,-0.453607 0.29005,-0.567671 1.42629,-0.567671 h 1.42174 l 2.43108,5.595839 c 1.33709,3.077696 3.72292,8.624875 5.30195,12.327051 1.57898,3.702195 2.94726,6.728079 3.0406,6.724219 0.0936,-0.004 2.56532,-5.551063 5.4933,-12.327065 l 5.32361,-12.320044 h 1.56985 c 0.86338,0 1.56977,0.121073 1.56977,0.26897 0,0.147903 -2.83849,6.826463 -6.3078,14.841137 l -6.3078,14.572132 -1.25648,0.0969 -1.2565,0.097 z m 27.51912,-0.583454 V 77.652401 h 1.45978 1.4598 v 14.922254 14.922215 h -1.4598 -1.45978 z M 199.59619,106.963 c -0.1225,-0.1226 -0.22302,-7.424637 -0.22302,-16.226602 V 74.732834 h -6.65011 -6.65016 V 69.38029 64.02775 h 19.79624 19.7962 l -0.0893,5.27143 -0.0893,5.271429 -6.566,0.08773 -6.56599,0.08773 -0.0842,16.132031 -0.0841,16.13201 -6.18377,0.0877 c -3.40107,0.0483 -6.28416,-0.0116 -6.40685,-0.13525 z m 29.19574,0 c -0.12254,-0.1226 -0.22302,-9.833284 -0.22302,-21.579144 V 64.02775 h 6.48791 6.48796 l 6.3e-4,8.67759 6.3e-4,8.677597 5.75734,-8.669127 5.75729,-8.669127 7.41784,-0.0077 c 6.94301,-0.0077 7.40826,0.02684 7.2675,0.566519 -0.0827,0.316095 -3.11469,4.732078 -6.73778,9.812967 -3.62305,5.080932 -6.58933,9.385686 -6.59167,9.566147 -0.003,0.180472 3.2534,5.211199 7.23493,11.179456 3.98154,5.968268 7.30741,11.112338 7.39084,11.431268 0.14254,0.54479 -0.30958,0.57994 -7.46981,0.57994 h -7.62156 l -6.12202,-9.871953 -6.12198,-9.871895 -0.16198,9.790818 -0.16199,9.7908 -6.18376,0.0877 c -3.40107,0.0482 -6.28418,-0.0116 -6.40683,-0.13525 z m 41.9485,-21.362894 V 64.02775 h 14.59784 14.59786 v 5.35254 5.352544 h -8.2721 -8.27213 v 2.750907 2.750908 l 6.89339,0.08738 6.89344,0.08773 0.0893,5.109246 0.0893,5.109283 h -6.98275 -6.98274 v 8.272106 8.272106 h -6.32575 -6.3257 z M 673.52897,69.92244 c -0.29541,-0.326438 -0.53686,-1.056179 -0.53686,-1.622005 0,-1.97232 2.14503,-2.994895 3.82057,-1.82132 0.87635,0.613837 1.00335,2.734622 0.21123,3.526774 -0.71038,0.710393 -2.82214,0.659931 -3.49491,-0.08352 z"
       id="path2204"
       sodipodi:nodetypes="csscscccccsccssccccsccccccssccsssccccsssscsssccsccccccsssscsscscssssccccscscsssssccscsscssscscssccssccscscscssssscsccsssscsccccsssscsssscsscccscssssccssscsssssccccsssscscsccscsscscccsscccccssssscsssssssssssssssccccccccccccccccccccccccccccccsscscsssccccccssscccccccsssccccccccccccssscsscccccccccscsscscsssccccccccccccccsccccccccccccccccsscccccccccccsssccccccsscccccccccccccccccccccssssss" />
    <path
       style="fill:#ffffff;fill-opacity:1;stroke-width:0.314839"
       d="M 97.212766,144.10163 C 80.662317,141.95642 65.797749,132.58206 56.532567,118.44653 47.086546,104.03515 44.746678,85.281707 50.300837,68.500921 55.839352,51.767439 69.484265,38.145168 86.32108,32.540443 c 7.019167,-2.336576 9.204388,-2.650545 18.44783,-2.650545 9.27459,0 11.41809,0.310717 18.57546,2.692754 20.5784,6.848613 35.55662,24.997215 38.42987,46.564117 0.56628,4.250292 0.56342,11.512247 -0.007,15.790829 -2.97758,22.366822 -19.10291,41.093572 -40.75041,47.324372 -5.60508,1.61331 -9.33016,2.06407 -16.60402,2.00923 -3.44099,-0.026 -6.681404,-0.10223 -7.200893,-0.16964 z"
       id="path2204-2" />
    <path
       d="m 76.429067,65.552793 v -5.400992 h 16.100672 v 5.400992 h -5.49977 V 82.754308 H 81.840643 V 65.552793 Z m -6.639313,30.120096 v 0 c -2.088514,1.160603 -7.090797,1.770909 -7.76111,-3.030397 -3.827675,-26.88858 19.811999,-46.210183 29.280519,-46.210183 3.640702,0 4.801306,1.770909 4.801306,5.95129 v 30.028514 c 0,0 -21.392409,10.4527 -26.320715,13.260776 z M 118.36006,82.754308 v 0 -22.531916 h 5.31989 v 8.812424 l 4.8013,-8.812424 h 5.85971 l -6.0325,11.331222 6.0325,11.200694 h -5.85971 l -4.8013,-8.650111 v 8.650111 z m -5.401,-0.342195 v 0 -30.028514 c 0,-4.180381 1.1501,-5.95129 4.86128,-5.95129 9.398,0 33.10823,19.321603 29.21,46.210183 -0.67028,4.801306 -5.66917,4.191 -7.76107,3.030397 -4.92831,-2.808076 -26.31021,-13.260776 -26.31021,-13.260776 z m -9.69782,26.920397 v 0 h 9.13691 V 103.9843 H 98.078969 v 22.54959 h 5.182271 v -8.96059 h 7.36953 v -4.7589 h -7.36953 z m 1.43933,20.60921 v 0 c -8.459503,0.0706 -23.562025,-4.08873 -28.680831,-13.04921 -1.8415,-3.11859 -0.878381,-5.04829 2.7305,-7.179 3.711328,-2.092 25.830321,-12.749419 25.830321,-12.749419 h 0.0706 c 0,0 22.12971,10.657419 25.7175,12.749419 3.6795,2.13071 4.64961,4.06041 2.8116,7.179 -5.1223,8.96048 -20.22119,13.1198 -28.702,13.04921 z"
       style="fill:#ee7200;fill-opacity:1;fill-rule:evenodd;stroke:none;stroke-width:0.352778"
       id="path19" />
    <path
       d="m 104.53826,141.06131 c 29.88031,0 54.13018,-24.25001 54.13018,-54.126621 0,-29.922575 -24.24987,-54.243074 -54.13018,-54.243074 -29.989498,0 -54.239513,24.320499 -54.239513,54.243074 0,29.876611 24.250015,54.126621 54.239513,54.126621 z M 45.109457,86.934689 v 0 c 0,-32.790694 26.571186,-59.432471 59.428803,-59.432471 32.75189,0 59.32311,26.641777 59.32311,59.432471 0,32.748321 -26.57122,59.319511 -59.32311,59.319511 -32.857617,0 -59.428803,-26.57119 -59.428803,-59.319511 z m 16.869798,12.809326 v 0 C 59.85906,98.583305 58.631358,96.551305 58.218644,93.651507 55.639873,75.7728 62.730671,63.284503 69.070053,55.97142 77.540247,46.213622 87.848449,41.772114 92.480456,41.772114 c 1.4605,0 3.587715,0.130493 5.118805,1.220576 1.820298,1.220611 2.610489,3.351424 2.610489,6.568722 v 35.112007 c -1.149989,0.550298 -30.370607,15.070596 -30.370607,15.070596 -2.049674,0.959485 -5.281083,1.389875 -7.859888,0 z m 5.450416,-45.180214 v 0 c -6.600507,7.690591 -14.051103,20.739805 -11.338313,39.380512 0.606813,4.5085 3.026904,6.709797 4.857786,7.637607 3.481916,1.8627 7.450595,1.25239 9.831916,0.0917 l 31.5595,-15.708979 V 85.294308 49.561412 c 0,-3.887611 -1.15009,-6.699214 -3.481917,-8.339702 -2.049674,-1.407512 -4.557889,-1.56979 -6.378187,-1.56979 -5.859709,0 -16.640598,5.210492 -25.050785,14.911881 z m 41.380689,-5.002389 v 0 c 0,-3.217298 0.8502,-5.348111 2.55771,-6.568722 1.53099,-1.090083 3.6618,-1.220576 5.1223,-1.220576 4.62848,0 14.94017,4.441508 23.47027,14.199306 6.33942,7.313083 13.37031,19.80138 10.84792,37.680087 -0.4692,2.959806 -1.70039,5.002389 -3.88762,6.092508 -2.51177,1.389875 -5.73969,0.959485 -7.7011,0 0,0 -26.32078,-13.102096 -30.40948,-15.070596 z m 1.2983,-8.339702 v 0 c -2.32841,1.640488 -3.47839,4.452091 -3.47839,8.339702 v 36.403209 l 31.6194,15.708979 c 2.44828,1.22771 6.40997,1.71101 9.70139,0 1.89801,-0.9701 4.318,-3.150302 4.98831,-7.729287 2.6494,-18.640707 -4.73072,-31.689921 -11.39822,-39.380512 -8.41029,-9.701389 -19.19111,-14.911881 -25.05078,-14.911881 -1.71101,0 -4.33211,0.162278 -6.38171,1.56979 z M 71.458358,117.912 v 0 c -0.878417,-1.4182 -1.548694,-2.99861 -1.548694,-4.56851 0,-1.97199 1.160709,-4.03218 4.420305,-5.93019 3.34077,-2.00018 26.860501,-13.761793 30.208291,-15.469308 3.31258,1.707515 26.89228,13.469128 30.23309,15.469308 2.31771,1.35121 3.74999,2.8611 4.2298,4.5685 0.127,0.4904 0.127,0.8714 0.127,1.29121 0,1.78149 -0.80789,3.47129 -1.48879,4.63899 -7.30952,12.68942 -26.38072,15.58219 -33.1011,15.58219 -6.709693,0 -25.777402,-2.89277 -33.079902,-15.58219 z M 103.98094,89.852091 v 0 l 0.6102,-0.218793 0.4869,0.218793 c 1.16061,0.560916 27.0933,13.592529 30.73041,15.631619 2.87161,1.7109 4.64262,3.68998 5.25289,5.9478 0.18701,0.68079 0.24691,1.2912 0.24691,1.91198 0,2.1802 -0.98781,4.25101 -1.8379,5.65863 -7.84941,13.59249 -27.85181,16.58048 -34.93209,16.58048 -7.059014,0 -27.128506,-2.98799 -34.988394,-16.58048 -0.539715,-1.03011 -1.830917,-3.21032 -1.830917,-5.65863 0,-2.51167 1.220611,-5.31989 5.542103,-7.85978 3.668889,-2.03909 29.640388,-15.070703 30.719888,-15.631619"
       style="fill:#1a1a18;fill-opacity:1;fill-rule:evenodd;stroke:none;stroke-width:0.352778"
       id="path23" />
    <path
       style="fill:#000000;stroke-width:0.0846667"
       id="path1526"
       d="" />
  </g>
</svg>
